<svg xmlns="http://www.w3.org/2000/svg" version="1.1" xmlns:xlink="http://www.w3.org/1999/xlink" xmlns:svgjs="http://svgjs.dev/svgjs" width="1000" height="189" viewBox="0 0 1000 189"><g transform="matrix(1,0,0,1,-0.6060606060606233,0.07892551374231971)"><svg viewBox="0 0 396 75" data-background-color="#ffffff" preserveAspectRatio="xMidYMid meet" height="189" width="1000" xmlns="http://www.w3.org/2000/svg" xmlns:xlink="http://www.w3.org/1999/xlink"><g id="tight-bounds" transform="matrix(1,0,0,1,0.2400000000000091,-0.031319648310443426)"><svg viewBox="0 0 395.52 75.06233893295214" height="75.06233893295214" width="395.52"><g><svg viewBox="0 0 512.7826599314999 97.31661058535343" height="75.06233893295214" width="395.52"><g transform="matrix(1,0,0,1,117.26265993149997,27.535817888041624)"><svg viewBox="0 0 395.52 42.24497480927018" height="42.24497480927018" width="395.52"><g id="textblocktransform"><svg viewBox="0 0 395.52 42.24497480927018" height="42.24497480927018" width="395.52" id="textblock"><g><svg viewBox="0 0 395.52 42.24497480927018" height="42.24497480927018" width="395.52"><g transform="matrix(1,0,0,1,0,0)"><svg width="395.52" viewBox="2.299999952316284 -36.54999923706055 347.33001708984375 37.099998474121094" height="42.24497480927018" data-palette-color="#a437db"><path d="M30.45-27.35L30.45-27.35Q30.45-25.45 29.58-23.8 28.7-22.15 27.2-21.05 25.7-19.95 23.75-19.7L23.75-19.7 23.75-19.5Q27.65-18.7 29.9-16.2 32.15-13.7 32.15-10.05L32.15-10.05Q32.15-7.25 30.68-4.88 29.2-2.5 26.95-1.35L26.95-1.35Q25.55-0.65 23.5-0.33 21.45 0 17.75 0L17.75 0 2.3 0 2.3-2.4 6.5-3.45 6.5-32.55 2.3-33.6 2.3-36 19.6-36Q24.85-36 27.7-33.45L27.7-33.45Q29-32.25 29.73-30.65 30.45-29.05 30.45-27.35ZM17.9-17.2L17.9-17.2 12-17.2 12-3.25 17-3.25Q19.3-3.25 20.7-3.5 22.1-3.75 23.05-4.3L23.05-4.3Q24.4-5.05 25.25-6.63 26.1-8.2 26.1-10.4L26.1-10.4Q26.1-12.25 25.45-13.6 24.8-14.95 23.8-15.75L23.8-15.75Q22.9-16.5 21.5-16.85 20.1-17.2 17.9-17.2ZM17.95-32.85L12-32.85 12-20.35 17.75-20.35Q21.25-20.35 22.9-22.1L22.9-22.1Q23.65-22.9 24.2-24.08 24.75-25.25 24.75-26.75L24.75-26.75Q24.75-28.25 24.2-29.45 23.65-30.65 22.9-31.35L22.9-31.35Q21.4-32.85 17.95-32.85L17.95-32.85ZM70.3-18.4L70.3-18.4Q70.3-14.1 69-10.28 67.7-6.45 65.3-3.85L65.3-3.85Q63.2-1.65 60.27-0.58 57.35 0.5 53.45 0.5L53.45 0.5Q49.55 0.5 46.6-0.55 43.65-1.6 41.7-3.7L41.7-3.7Q39.45-6.05 38.17-9.68 36.9-13.3 36.9-17.6L36.9-17.6Q36.9-21.95 38.22-25.78 39.55-29.6 41.9-32.15L41.9-32.15Q44-34.4 46.82-35.45 49.65-36.5 53.6-36.5L53.6-36.5Q57.45-36.5 60.37-35.48 63.3-34.45 65.45-32.3L65.45-32.3Q67.85-29.85 69.07-26.18 70.3-22.5 70.3-18.4ZM43.15-18.6L43.15-18.6Q43.15-14.5 43.85-11.35 44.55-8.2 45.85-6.2L45.85-6.2Q47.1-4.35 49.02-3.43 50.95-2.5 53.75-2.5L53.75-2.5Q58.85-2.5 61.3-5.8L61.3-5.8Q62.65-7.6 63.35-10.6 64.05-13.6 64.05-17.7L64.05-17.7Q64.05-21.8 63.32-24.88 62.6-27.95 61.3-29.85L61.3-29.85Q60-31.75 58.02-32.65 56.05-33.55 53.4-33.55L53.4-33.55Q50.85-33.55 49-32.7 47.15-31.85 45.9-30.25L45.9-30.25Q43.15-26.6 43.15-18.6ZM108.65-18.4L108.65-18.4Q108.65-14.1 107.34-10.28 106.05-6.45 103.65-3.85L103.65-3.85Q101.55-1.65 98.62-0.58 95.7 0.5 91.8 0.5L91.8 0.5Q87.9 0.5 84.95-0.55 82-1.6 80.05-3.7L80.05-3.7Q77.8-6.05 76.52-9.68 75.25-13.3 75.25-17.6L75.25-17.6Q75.25-21.95 76.57-25.78 77.9-29.6 80.25-32.15L80.25-32.15Q82.34-34.4 85.17-35.45 88-36.5 91.95-36.5L91.95-36.5Q95.8-36.5 98.72-35.48 101.65-34.45 103.8-32.3L103.8-32.3Q106.2-29.85 107.42-26.18 108.65-22.5 108.65-18.4ZM81.5-18.6L81.5-18.6Q81.5-14.5 82.2-11.35 82.9-8.2 84.2-6.2L84.2-6.2Q85.45-4.35 87.37-3.43 89.3-2.5 92.09-2.5L92.09-2.5Q97.2-2.5 99.65-5.8L99.65-5.8Q101-7.6 101.7-10.6 102.4-13.6 102.4-17.7L102.4-17.7Q102.4-21.8 101.67-24.88 100.95-27.95 99.65-29.85L99.65-29.85Q98.34-31.75 96.37-32.65 94.4-33.55 91.75-33.55L91.75-33.55Q89.2-33.55 87.34-32.7 85.5-31.85 84.25-30.25L84.25-30.25Q81.5-26.6 81.5-18.6ZM126.99-33.6L122.79-32.55 122.79-18.8 136.04-32.55 131.49-33.6 131.49-36 145.14-36 145.14-33.6 140.74-32.55 129.29-21.2 144.04-3.35 148.24-2.4 148.24 0 133.79 0 133.79-2.4 137.09-3.4 125.64-17.55 122.79-14.8 122.79-3.45 126.99-2.4 126.99 0 112.59 0 112.59-2.4 117.29-3.45 117.29-32.55 112.59-33.6 112.59-36 126.99-36 126.99-33.6ZM171.09-32.75L171.09-3.25 178.34-3.25Q181.04-3.25 182.94-4.05 184.84-4.85 186.14-6.55L186.14-6.55Q187.49-8.3 188.19-11.08 188.89-13.85 188.89-17.7L188.89-17.7Q188.89-25.25 186.14-29.05L186.14-29.05Q184.79-30.95 182.76-31.85 180.74-32.75 177.84-32.75L177.84-32.75 171.09-32.75ZM161.39-33.6L161.39-36 178.69-36Q186.14-36 190.29-31.8L190.29-31.8Q192.64-29.4 193.89-25.9 195.14-22.4 195.14-18.4L195.14-18.4Q195.14-14.2 193.81-10.53 192.49-6.85 190.14-4.35L190.14-4.35Q185.99 0 178.24 0L178.24 0 161.39 0 161.39-2.4 165.59-3.45 165.59-32.55 161.39-33.6ZM213.94-33.6L209.24-32.55 209.24-3.45 213.94-2.4 213.94 0 199.04 0 199.04-2.4 203.74-3.45 203.74-32.55 199.04-33.6 199.04-36 213.94-36 213.94-33.6ZM234.18-3L234.18-3Q238.43-3 240.46-5.13 242.48-7.25 242.48-11.4L242.48-11.4 242.48-14.4 238.28-15.45 238.28-17.95 252.18-17.95 252.18-15.45 247.98-14.4 247.98 0 244.88 0 243.63-3.95Q241.48-1.55 239.16-0.53 236.83 0.5 233.68 0.5L233.68 0.5Q226.83 0.5 222.73-3.7L222.73-3.7Q220.43-6.05 219.16-9.65 217.88-13.25 217.88-17.6L217.88-17.6Q217.88-22.05 219.21-25.88 220.53-29.7 222.93-32.2L222.93-32.2Q224.98-34.35 227.73-35.43 230.48-36.5 234.03-36.5L234.03-36.5Q237.03-36.5 239.11-35.63 241.18-34.75 243.03-32.65L243.03-32.65 244.13-36 247.38-36 247.38-24.7 243.83-24.7Q243.13-28.95 240.66-31.25 238.18-33.55 233.98-33.55L233.98-33.55Q231.53-33.55 229.88-32.75 228.23-31.95 227.03-30.3L227.03-30.3Q225.63-28.2 224.78-25.05 223.93-21.9 223.93-18.3L223.93-18.3Q223.93-14.65 224.81-11.48 225.68-8.3 227.28-6.1L227.28-6.1Q228.48-4.5 230.16-3.75 231.83-3 234.18-3ZM277.23-25.1L277.23-11.9 274.18-11.9 273.28-16.85 265.48-16.85 265.48-3.25 280.13-3.25 281.63-11.15 285.03-11.15 285.03 0 255.28 0 255.28-2.4 259.98-3.45 259.98-32.55 255.28-33.6 255.28-36 283.93-36 283.93-25.4 280.83-25.4 279.28-32.85 265.48-32.85 265.48-20.1 273.28-20.1 274.18-25.1 277.23-25.1ZM303.73 0.55L303.73 0.55Q300.83 0.55 298.55-0.33 296.28-1.2 294.68-2.9L294.68-2.9 294.13 0 290.83 0 290.83-11.6 294.38-11.6Q294.68-6.75 296.8-4.6 298.93-2.45 302.93-2.45L302.93-2.45Q306.28-2.45 308.03-3.78 309.78-5.1 309.78-7.7L309.78-7.7Q309.78-9.85 308.7-11.25 307.63-12.65 305.6-13.75 303.58-14.85 300.78-15.95L300.78-15.95Q297.68-17.25 295.48-18.55 293.28-19.85 292.13-21.7 290.98-23.55 290.98-26.45L290.98-26.45Q290.98-31.25 293.95-33.9 296.93-36.55 301.93-36.55L301.93-36.55Q306.88-36.55 309.98-33.75L309.98-33.75 310.38-36 313.68-36 313.68-24.4 310.33-24.4Q310.33-29.15 308.55-31.38 306.78-33.6 302.98-33.6L302.98-33.6Q296.53-33.6 296.53-27.65L296.53-27.65Q296.53-25.95 297.18-24.9 297.83-23.85 299.4-22.95 300.98-22.05 303.88-20.8L303.88-20.8Q308.03-19 310.55-17.35 313.08-15.7 314.2-13.8 315.33-11.9 315.33-9.3L315.33-9.3Q315.33-6.15 313.83-3.95 312.33-1.75 309.73-0.6 307.13 0.55 303.73 0.55ZM319.32-25.25L319.32-36 349.63-36 349.63-25.25 346.82-25.25 345.23-32.75 337.23-32.75 337.23-3.6 342.52-2.4 342.52 0 326.43 0 326.43-2.4 331.73-3.6 331.73-32.75 323.68-32.75 322.13-25.25 319.32-25.25Z" opacity="1" transform="matrix(1,0,0,1,0,0)" fill="#a437db" class="wordmark-text-0" data-fill-palette-color="primary" id="text-0"></path></svg></g></svg></g></svg></g></svg></g><g><svg viewBox="0 0 97.31661058535343 97.31661058535343" height="97.31661058535343" width="97.31661058535343"><g><svg></svg></g><g id="icon-0"><svg viewBox="0 0 97.31661058535343 97.31661058535343" height="97.31661058535343" width="97.31661058535343"><g><path d="M0 48.658c0-26.873 21.785-48.658 48.658-48.658 26.873 0 48.658 21.785 48.659 48.658 0 26.873-21.785 48.658-48.659 48.659-26.873 0-48.658-21.785-48.658-48.659zM48.658 93.507c24.769 0 44.849-20.079 44.849-44.849 0-24.769-20.079-44.849-44.849-44.848-24.769 0-44.849 20.079-44.848 44.848 0 24.769 20.079 44.849 44.848 44.849z" data-fill-palette-color="accent" fill="#a437db" stroke="transparent"></path></g><g transform="matrix(1,0,0,1,35.64943165651799,25.587502738065712)"><svg viewBox="0 0 26.017747272317454 46.141605109222006" height="46.141605109222006" width="26.017747272317454"><g><svg xmlns="http://www.w3.org/2000/svg" xmlns:xlink="http://www.w3.org/1999/xlink" version="1.1" x="0" y="0" viewBox="24.703994750976562 5.13700008392334 50.59300231933594 89.7249984741211" enable-background="new 0 0 100 100" xml:space="preserve" height="46.141605109222006" width="26.017747272317454" class="icon-s-0" data-fill-palette-color="accent" id="s-0"><path fill="#a437db" d="M75.293 73.921l0.004-49.42h-8.302V5.137l-39.7 16.961c-1.749 0.906-2.59 1.979-2.59 2.982 0 0-0.001 46.49-0.001 46.503 0 9.225 5.628 16.183 14.325 16.183H59.71v7.096l5.018-5.778 4.788 5.778v-7.096h5.781L75.293 73.921zM30.813 28.53l16.693-7.156v2.666l-16.693 7.156V28.53zM30.813 34.158l16.693-7.156v2.665l-16.693 7.156V34.158zM39.458 85.139c-5.87 0-10.645-4.775-10.645-10.646 0-4.31 2.572-8.168 6.55-9.826 1.082-0.452 29.591-12.969 29.842-13.076l0.002 2.9c0 0-27.721 12.177-28.819 12.635-2.982 1.244-4.91 4.135-4.91 7.367 0 4.399 3.58 7.979 7.979 7.979H59.71v2.667H39.458zM35.211 77.139H59.71v2.664h-0.589H39.865C37.881 79.803 36.151 78.73 35.211 77.139zM72.63 85.139h-3.114v-2.667h3.114V85.139zM72.63 79.803h-3.114v-2.664h3.114V79.803zM72.63 74.426l-38.169 0.002c0-0.011-0.001-0.021-0.001-0.029 0-0.961 0.263-1.856 0.702-2.638H72.63V74.426zM72.63 69.105H38.524l26.989-11.852c0.903-0.389 1.482-1.247 1.482-2.197V27.161h5.635V69.105z" data-fill-palette-color="accent"></path></svg></g></svg></g></svg></g></svg></g></svg></g><defs></defs></svg><rect width="395.52" height="75.06233893295214" fill="none" stroke="none" visibility="hidden"></rect></g></svg></g></svg>